PathFileType	4	(X/Y/Z)	71_2_73_p1_0-203_filt_butterworth.trc
DataRate	CameraRate	NumFrames	NumMarkers	Units	OrigDataRate	OrigDataStartFrame	OrigNumFrames
44.0	44.0	6	27	m	44.0	0	203
Frame#	Time	RHip			RKnee			RAnkle			RBigToe			RSmallToe			RHeel			LHip			LKnee			LAnkle			LBigToe			LSmallToe			LHeel			Neck			Head			Nose			RShoulder			RElbow			RWrist			RThumb			RIndex			RPinky			LShoulder			LElbow			LWrist			LThumb			LIndex			LPinky			
		X1	Y1	Z1	X2	Y2	Z2	X3	Y3	Z3	X4	Y4	Z4	X5	Y5	Z5	X6	Y6	Z6	X7	Y7	Z7	X8	Y8	Z8	X9	Y9	Z9	X10	Y10	Z10	X11	Y11	Z11	X12	Y12	Z12	X13	Y13	Z13	X14	Y14	Z14	X15	Y15	Z15	X16	Y16	Z16	X17	Y17	Z17	X18	Y18	Z18	X19	Y19	Z19	X20	Y20	Z20	X21	Y21	Z21	X22	Y22	Z22	X23	Y23	Z23	X24	Y24	Z24	X25	Y25	Z25	X26	Y26	Z26	X27	Y27	Z27	
0	0.0	0.41902806209211774	0.7638066802024152	0.5625256679750887	0.41957515796926687	0.3002808886258182	0.6725608074193513	0.4306334476707613	-0.15193244208967271	0.7181407190408599	0.39599802332168144	-0.15450982382172126	0.4992158030981906	0.4630550947983853	-0.1299543165004099	0.49160063544262644	0.39752237444255395	-0.24715967745275752	0.8095028984359957	0.17491164976934742	0.7443102518611094	0.61296508673119	0.19305670069422204	0.2955565690392731	0.6719402852169234	0.19921020911290147	-0.1355064774576973	0.6915308922900403	0.23626137555362553	-0.1393461881094257	0.4909857316838511	0.17117308509761267	-0.14125535894925975	0.5260363348762793	0.2108999892423596	-0.2227214721552212	0.7440798119499141	0.3040191971631076	1.3445994955167089	0.6040543397427696	0.30183795760815685	1.5951708730689091	0.5682206642170751	0.3099299050179389	1.4794406141618441	0.464283064133957	0.47158138196770977	1.2604806052143784	0.5674776223726574	0.5120218653147324	0.9601021251484112	0.5496436917396081	0.3882412936577407	0.7387063312568262	0.46861938059312946	0.2853610678133063	0.6514758970817172	0.45991307497372214	0.28875328073270706	0.6374712971808516	0.4695434035000894	0.3062307045590164	0.6441581661552829	0.45122862095671634	0.131012993067714	1.257288798102892	0.6080131323336212	0.08911869139374176	0.9680998115791852	0.59562039080575	0.20611196933162648	0.7515950469625897	0.44226405276284786	0.31223245047438436	0.7169998792044371	0.4032392466729609	0.321110781010124	0.6720890640273405	0.3954859899079982	0.28105656577042587	0.6479008846999988	0.4549617187550697	
1	0.0227272727272727	0.419112219957198	0.7659692757892247	0.5641619948749144	0.4188726315302256	0.30227526362644386	0.6723238748875802	0.43179831276961766	-0.15003418991094292	0.7139593494846619	0.39148872861880846	-0.15217620063850648	0.4927572434094309	0.46326317208542406	-0.13025628854683732	0.49191286434780745	0.3967682567058516	-0.24656156474307644	0.8102576882567935	0.1759595045004267	0.7464353015934772	0.6100376446900997	0.19276667901235978	0.29618124940568846	0.6707351539598924	0.19916338696057634	-0.13546468986218307	0.6915290585584298	0.2340625613951944	-0.14569001302619994	0.4960103051859674	0.17094828229761536	-0.1440286092396083	0.5259836032452835	0.210026068980722	-0.22196629524306538	0.747050298729691	0.3040830908347478	1.3462567455485792	0.6032772743758531	0.3017383945421126	1.5958921445740064	0.5667287603063553	0.307602357926781	1.480896415949385	0.4640530197048266	0.4702815372956144	1.2596778468611407	0.5729323954024573	0.512300319440802	0.9608624397958847	0.55077925815705	0.3889336438463036	0.7384428163983433	0.46889220487433864	0.2877223445558449	0.6499692199418704	0.4674200446123722	0.2900582959026926	0.636442527522247	0.4722331050999534	0.3069760051939546	0.642065262355235	0.4550214021341559	0.1309768663284387	1.2571768602689992	0.6079931908976283	0.08846639783633493	0.9675588363772767	0.5989215355967702	0.20365994207501778	0.7489678096266763	0.4495058123143665	0.3110049141371574	0.7165261079442135	0.41161971887985005	0.31847825041262995	0.6730725557178272	0.4011050831543638	0.2800456986561043	0.6468390764000576	0.4578196184038551	
2	0.0454545454545454	0.4190399530957845	0.7676080919024352	0.5657304100494189	0.41830170186332205	0.3040081401776298	0.6721376224421974	0.432694032271709	-0.1486865464731711	0.7107525493156979	0.38873311284735845	-0.15029913841842643	0.488675234051139	0.4627784693765604	-0.13042141629539536	0.4919529771475394	0.3962244533158156	-0.24623111429019817	0.8109830089306128	0.17681000675438924	0.7482002921706133	0.6077153472341972	0.1925424593230432	0.2966552278895925	0.6698623595746929	0.19909553620872208	-0.13526335995759714	0.691482231296369	0.23279373025773556	-0.14986613432315507	0.49961762091530176	0.17079883326705836	-0.14574709927057014	0.5259474674993837	0.2094016934254148	-0.2211348930207945	0.7491024008788351	0.3040644522557422	1.3473314744547646	0.602965941461291	0.30194621255746773	1.5961766772013384	0.5672878316575051	0.30657992434015474	1.4818525546029797	0.4639376718715158	0.4693731064477965	1.259071167711535	0.5767591988090716	0.5122702817366198	0.9618681328358586	0.5510741326808908	0.38908962156562354	0.7384597602227669	0.46899152021370144	0.288586177994417	0.6497113830044499	0.4707194647041586	0.29040672344801644	0.6361963334783465	0.4732031249566707	0.3057007314541116	0.6406761729020163	0.4582214841727271	0.13095208921754367	1.2572149301129227	0.6079771315313454	0.08825208427382827	0.9670973920665391	0.6000463199294008	0.20214503312706059	0.7474419881992495	0.4537569769752719	0.30950175230095733	0.7163160612246032	0.4179275377993952	0.31599225644653645	0.6737008358840515	0.40543710959740087	0.2792645299284144	0.6469498603706557	0.4581148241202988	
3	0.0681818181818181	0.41883389908961904	0.7687713196647106	0.567226341776573	0.41785455160553225	0.30549501907930987	0.6719972640286714	0.4333435957184439	-0.14783932538342393	0.7084369210672571	0.3873816577378979	-0.14882976494053554	0.4865040308311452	0.46179761191692265	-0.130476362127184	0.4917883133669034	0.39586951671696624	-0.2461402768481669	0.8116762963314704	0.17748375777123238	0.7496343262776932	0.6059431708347796	0.19238130126853942	0.296994988311161	0.669284755829869	0.199010169538399	-0.1349252010960572	0.691396849197355	0.2322249061981772	-0.15216833421012183	0.5019023606169093	0.17070680895576978	-0.14658031102827102	0.5259370141747749	0.20900234918752408	-0.22024220154058557	0.7503269602779096	0.3039962100611702	1.3479277708434592	0.6029851208018489	0.30238451228543195	1.5961256448473353	0.5693166613754941	0.3065637446981129	1.4823997171823462	0.4639139449109652	0.4688137059588554	1.25865615104087	0.5791494243340192	0.5120112451494712	0.962983535410385	0.5507363013182996	0.38884962001315526	0.7386397608183023	0.46894965171671765	0.2882471451168975	0.6504296828117272	0.4706400591625887	0.28998375899361095	0.6365641930265009	0.47276877701577824	0.30317407337003877	0.6399059873741826	0.4606342100714228	0.13093754672721794	1.2573595939150415	0.6079683791494082	0.08841279692750831	0.9667279012642189	0.5994580955408098	0.20146259014591264	0.7468644765173739	0.45542160402938325	0.3079320964656841	0.7163523195417514	0.42203507894878345	0.31378092120585976	0.6740343124502768	0.4084590698497472	0.2786825833376266	0.6478849414492962	0.4565049088096243	
4	0.0909090909090909	0.41851669552044357	0.7695071501987143	0.5686452183343471	0.41752336339383206	0.30675140113141797	0.6718980135924707	0.433769992651231	-0.14744234024876843	0.7069290672726286	0.38708484502099305	-0.147719207983888	0.48577788955728035	0.46051722495163905	-0.13044778842330318	0.4914862125309807	0.39568199935382387	-0.2462610031710269	0.8123349863333832	0.1780013587909533	0.7507665065998926	0.6046660919631434	0.19228046449111552	0.29721701449057014	0.6689651964939649	0.1989107996306673	-0.13447292662968063	0.6912793509548859	0.23212611327344754	-0.1528903948969307	0.5029592060358447	0.1706542803135778	-0.1466977264988367	0.5259613298076523	0.20880352287813606	-0.2193031568546157	0.750814818807478	0.3039112928861115	1.348149723322855	0.603199592200292	0.3029763943572149	1.5958402214084257	0.5722340325652915	0.3072549594407083	1.4826285907471994	0.4639587631001149	0.46856095236339035	1.2584283801244553	0.5802944637188194	0.5116027026266419	0.964072978661515	0.5499737500764452	0.3883540323863534	0.7388654162731542	0.46879892448888666	0.2869998229111612	0.6518514159059752	0.46801055190117	0.28897459816440846	0.6373775841440605	0.4712453752228126	0.30016522097228765	0.63966979535029	0.46206492282923595	0.1309321238496506	1.2575674379557351	0.6079703586664524	0.0888855820186616	0.9664627865875617	0.5976202141681646	0.20150796078973182	0.7470821684181138	0.45490375076051975	0.3065050781312375	0.7166174633918035	0.4238147178452023	0.3119723667846163	0.6741333933407667	0.4101479645240406	0.27826938263401135	0.6492960244734822	0.45364744537705504	
5	0.1136363636363636	0.41811097996999996	0.7698637746271101	0.569982468000712	0.4173003198651976	0.30779278713388797	0.6718350850790633	0.4339962126114789	-0.1474454046762711	0.7061455904651014	0.3874931564272114	-0.14691859532753987	0.48603106603737545	0.45913393372583894	-0.13036235756485465	0.49111401416485284	0.39564045367090867	-0.24656524401282237	0.8129565148103677	0.1783834110535493	0.7516259358223865	0.6038290870905851	0.19223720863303856	0.2973377902479962	0.6688665353355245	0.19880093916658723	-0.13392924991058502	0.6911361752624592	0.2322673755404753	-0.15232609859341448	0.5028828389171641	0.17062331829031097	-0.14626882766839464	0.5260295009342116	0.20878070110833682	-0.21833269501506172	0.7506568183481032	0.3038426293656463	1.348101420501148	0.6034741354593869	0.30364495940402697	1.595421580781042	0.5754587283318678	0.3083547090079943	1.482629862357258	0.46404905071590596	0.4685724621960019	1.258383438237602	0.5803857087049921	0.5111241471154184	0.9650007937313005	0.5489944649624972	0.3877432518826735	0.7390193246755279	0.4685716636357086	0.2851387883650838	0.6537038788294653	0.4636596668334104	0.287564436585342	0.6384679848083759	0.4689482335233113	0.29744336429141033	0.6398826864088943	0.4623189654451601	0.13093470557703102	1.257795048515384	0.6079864949971145	0.08960748576857494	0.9663144706538142	0.5949960275486339	0.20217649271667637	0.7479419577385341	0.45260747445250116	0.30542982879751834	0.7170940732709047	0.42313883000583963	0.3106947152768232	0.6740584864797852	0.4104807942329193	0.27799445156783975	0.6508348142807174	0.450200006727815	
